{"title":"Housefull 3 (2016) 1 CD DesiSCR XviD MP3-DDR","uid":14790276,"size":676770278,"categoryP":"video","categoryS":"movies","magnet":"?xt=urn:btih:5f2f4d74b2d9ed0fd2d5d560b661839a424fd801&amp;dn=Housefull+3+%282016%29+1+CD+DesiSCR+XviD+MP3-DDR&amp;tr=udp%3A%2F%2Ftracker.leechers-paradise.org%3A6969&amp;tr=udp%3A%2F%2Fzer0day.ch%3A1337&amp;tr=udp%3A%2F%2Fopen.demonii.com%3A1337&amp;tr=udp%3A%2F%2Ftracker.coppersurfer.tk%3A6969&amp;tr=udp%3A%2F%2Fexodus.desync.com%3A6969","seeders":20,"leechers":2,"uploader":"SaM","files":2,"time":1465054386,"description":"- BollywooD MoviE -\r\n**- Housefull 3 -**\r\n- 2016 -\r\n** 1 CD / Desi SCR / XviD / MP3 **\r\nNo subtitle(s)\r\n\r\n ~* SCREENSHOTS *~\r\n \nhttps://extraimago.com/image/aeOP \nhttps://extraimago.com/image/aeOG \nhttps://extraimago.com/image/aeOr \nhttps://extraimago.com/image/aeOp \nhttps://extraimago.com/image/aeOY \nhttps://extraimago.com/image/aeOC \nhttps://extraimago.com/image/aeOB \nhttps://extraimago.com/image/aeO4 \nhttps://extraimago.com/image/aeOe \nhttps://extraimago.com/image/aeOZ \nhttps://extraimago.com/image/aeOK\r\n\r\n[ Specs ]\r\nGeneral\r\nSource = DesiSCR @ DDR\r\nFormat : Matroska\r\nFormat version : Version 4 / Version 2\r\nFile size : 1.01 GiB\r\nDuration : 2h 11mn\r\nOverall bit rate : 1 099 Kbps\r\n\r\nVideo\r\nID : 1\r\nFormat : AVC\r\nFormat/Info : Advanced Video Codec\r\nFormat profile :   \r\nFormat settings, CABAC : Yes\r\nFormat settings, ReFrames : 5 frames\r\nDuration : 2h 11mn\r\nBit rate : 1 001 Kbps\r\nWidth : 720 pixels\r\nHeight : 304 pixels\r\nDisplay aspect ratio : 2.35:1\r\nFrame rate mode : Constant\r\nFrame rate : 25.000 fps\r\ncolor space : YUV\r\nChroma subsampling : 4:2:0\r\nBit depth : 8 bits\r\nScan type : Progressive\r\nBits/(Pixel*Frame) : 0.183\r\nStream size : 944 MiB (91%)\r\nLanguage : English\r\nDefault : Yes\r\nForced : No\r\n\r\nAudio\r\nID : 2\r\nFormat : AAC\r\nFormat profile : LC\r\nDuration : 2h 11mn\r\nBit rate : 96.0 Kbps\r\nChannel(s) : 1 channel\r\nChannel positions : Front: C\r\nSampling rate : 48.0 KHz\r\nCompression mode : Lossy\r\nStream size : 90.5 MiB (9%)\r\nDefault : Yes\r\nForced : No\r\nChapters: No\r\nSample: YES - included\r\n\r\nA DDR Exclusive Release...!","torrent":{"xt":"urn:btih:5f2f4d74b2d9ed0fd2d5d560b661839a424fd801","amp;dn":"Housefull+3+%282016%29+1+CD+DesiSCR+XviD+MP3-DDR","amp;tr":["udp%3A%2F%2Ftracker.leechers-paradise.org%3A6969","udp%3A%2F%2Fzer0day.ch%3A1337","udp%3A%2F%2Fopen.demonii.com%3A1337","udp%3A%2F%2Ftracker.coppersurfer.tk%3A6969","udp%3A%2F%2Fexodus.desync.com%3A6969"],"infoHash":"5f2f4d74b2d9ed0fd2d5d560b661839a424fd801","infoHashBuffer":{"type":"Buffer","data":[95,47,77,116,178,217,237,15,210,213,213,96,182,97,131,154,66,79,216,1]},"announce":[],"urlList":[]}}